<svg width="332" height="63" viewBox="0 0 332 63" fill="none" xmlns="http://www.w3.org/2000/svg">
<g clip-path="url(#clip0)" filter="url(#filter0_d)">
<path d="M40.8419 13.8626C40.88 13.61 40.9 13.3515 40.9 13.0882C40.9 10.2456 38.5956 7.94118 35.7529 7.94118C35.1107 7.94118 34.4964 8.05985 33.9295 8.27471C33.1804 6.35809 31.317 5 29.1353 5C26.9535 5 25.0901 6.35809 24.341 8.27471C23.7741 8.05985 23.1598 7.94118 22.5176 7.94118C19.675 7.94118 17.3706 10.2456 17.3706 13.0882C17.3706 13.3515 17.3906 13.61 17.4287 13.8626C14.8807 14.1709 12.906 16.3394 12.906 18.9706C12.906 21.8132 15.2104 24.1176 18.0531 24.1176C19.9445 24.1176 38.3262 24.1176 40.2176 24.1176C43.0603 24.1176 45.3647 21.8132 45.3647 18.9706C45.3645 16.3394 43.3898 14.1709 40.8419 13.8626Z" fill="#FFE98F"/>
<path d="M29.1353 5C26.9535 5 25.0901 6.35809 24.341 8.27471C23.7741 8.05985 23.1598 7.94118 22.5176 7.94118C19.675 7.94118 17.3706 10.2456 17.3706 13.0882C17.3706 13.3515 17.3906 13.61 17.4287 13.8626C14.8807 14.1709 12.906 16.3394 12.906 18.9706C12.906 21.8132 15.2104 24.1176 18.0531 24.1176H29.1353C29.1353 24.1176 29.1353 7.65824 29.1353 5Z" fill="#FFDA44"/>
<path d="M12.9589 19.7059L17.3706 55H40.9L45.3118 19.7059H12.9589Z" fill="#BD3C1A"/>
<path d="M33.5471 55H23.2529L21.7823 19.7059H35.0176L33.5471 55Z" fill="#FF5023"/>
<path d="M33.547 55H29.1353V19.7059H35.0176L33.547 55Z" fill="#FF734F"/>
<path d="M12.9589 19.7059L17.3706 55H24.7236L23.253 19.7059H12.9589Z" fill="#BD3C1A"/>
<path d="M29.1353 42.5C33.1962 42.5 36.4882 40.854 36.4882 38.8235C36.4882 36.793 33.1962 35.147 29.1353 35.147C25.0744 35.147 21.7823 36.793 21.7823 38.8235C21.7823 40.854 25.0744 42.5 29.1353 42.5Z" fill="white"/>
<path d="M29.1353 42.5C25.0744 42.5 21.7823 40.8541 21.7823 38.8235C21.7823 36.7929 25.0744 35.147 29.1353 35.147" fill="#FFE98F"/>
<path d="M84.3844 18.24V42H78.9124V31.092L79.0924 23.784H79.0204L73.1524 42H68.1484L62.2804 23.784H62.2084L62.3884 31.092V42H56.8804V18.24H65.7004L69.4444 30.336L70.7764 35.376H70.8484L72.2164 30.372L75.9244 18.24H84.3844ZM97.6766 23.64C99.5726 23.64 101.229 24.012 102.645 24.756C104.085 25.5 105.201 26.568 105.993 27.96C106.809 29.352 107.217 31.032 107.217 33C107.217 34.968 106.809 36.648 105.993 38.04C105.201 39.432 104.085 40.5 102.645 41.244C101.229 41.988 99.5726 42.36 97.6766 42.36C95.8046 42.36 94.1486 41.988 92.7086 41.244C91.2926 40.5 90.1766 39.432 89.3606 38.04C88.5686 36.648 88.1726 34.968 88.1726 33C88.1726 31.032 88.5686 29.352 89.3606 27.96C90.1766 26.568 91.2926 25.5 92.7086 24.756C94.1486 24.012 95.8046 23.64 97.6766 23.64ZM97.6766 27.996C96.6206 27.996 95.7926 28.392 95.1926 29.184C94.6166 29.952 94.3286 31.224 94.3286 33C94.3286 34.752 94.6166 36.024 95.1926 36.816C95.7926 37.608 96.6206 38.004 97.6766 38.004C98.7566 38.004 99.5846 37.608 100.161 36.816C100.761 36.024 101.061 34.752 101.061 33C101.061 31.224 100.761 29.952 100.161 29.184C99.5846 28.392 98.7566 27.996 97.6766 27.996ZM122.043 24H128.379L121.899 42H114.591L108.111 24H114.555L118.263 37.716L122.043 24ZM133.583 21.912C132.335 21.912 131.423 21.684 130.847 21.228C130.295 20.748 130.019 20.004 130.019 18.996C130.019 17.964 130.295 17.22 130.847 16.764C131.423 16.284 132.335 16.044 133.583 16.044C134.807 16.044 135.707 16.284 136.283 16.764C136.859 17.22 137.147 17.964 137.147 18.996C137.147 20.004 136.859 20.748 136.283 21.228C135.707 21.684 134.807 21.912 133.583 21.912ZM136.643 24V42H130.523V24H136.643ZM149.783 42.36C146.783 42.36 144.407 41.544 142.655 39.912C140.927 38.28 140.063 35.976 140.063 33C140.063 31.032 140.459 29.352 141.251 27.96C142.067 26.544 143.171 25.476 144.563 24.756C145.979 24.012 147.623 23.64 149.495 23.64C151.391 23.64 152.999 24.012 154.319 24.756C155.663 25.476 156.683 26.484 157.379 27.78C158.075 29.052 158.423 30.516 158.423 32.172C158.423 32.628 158.399 33.072 158.351 33.504C158.327 33.912 158.303 34.26 158.279 34.548H146.003C146.171 35.796 146.579 36.696 147.227 37.248C147.875 37.776 148.727 38.04 149.783 38.04C150.695 38.04 151.415 37.86 151.943 37.5C152.495 37.14 152.903 36.636 153.167 35.988L158.063 37.608C157.727 38.64 157.139 39.516 156.299 40.236C155.483 40.932 154.499 41.46 153.347 41.82C152.219 42.18 151.031 42.36 149.783 42.36ZM149.495 27.924C147.551 27.924 146.399 29.04 146.039 31.272H152.627C152.363 29.04 151.319 27.924 149.495 27.924ZM169.407 42.36C167.607 42.36 165.939 42.072 164.403 41.496C162.867 40.896 161.583 40.044 160.551 38.94L163.431 35.556C164.031 36.324 164.823 36.972 165.807 37.5C166.815 38.004 167.931 38.256 169.155 38.256C169.899 38.256 170.511 38.148 170.991 37.932C171.471 37.716 171.711 37.38 171.711 36.924C171.711 36.612 171.591 36.348 171.351 36.132C171.111 35.916 170.631 35.736 169.911 35.592L167.391 35.088C165.135 34.632 163.527 33.96 162.567 33.072C161.631 32.16 161.163 30.972 161.163 29.508C161.163 28.524 161.463 27.588 162.063 26.7C162.663 25.812 163.587 25.08 164.835 24.504C166.083 23.928 167.679 23.64 169.623 23.64C173.343 23.64 176.055 24.672 177.759 26.736L174.843 30.048C174.267 29.328 173.523 28.764 172.611 28.356C171.699 27.948 170.787 27.744 169.875 27.744C168.123 27.744 167.247 28.188 167.247 29.076C167.247 29.388 167.391 29.664 167.679 29.904C167.991 30.144 168.555 30.336 169.371 30.48L172.647 31.128C174.495 31.488 175.827 32.112 176.643 33C177.459 33.864 177.867 34.92 177.867 36.168C177.867 37.92 177.159 39.396 175.743 40.596C174.351 41.772 172.239 42.36 169.407 42.36ZM199.591 18.24V23.028H191.851V42H185.659V23.028H177.883V18.24H199.591ZM207.962 23.64C209.858 23.64 211.514 24.012 212.93 24.756C214.37 25.5 215.486 26.568 216.278 27.96C217.094 29.352 217.502 31.032 217.502 33C217.502 34.968 217.094 36.648 216.278 38.04C215.486 39.432 214.37 40.5 212.93 41.244C211.514 41.988 209.858 42.36 207.962 42.36C206.09 42.36 204.434 41.988 202.994 41.244C201.578 40.5 200.462 39.432 199.646 38.04C198.854 36.648 198.458 34.968 198.458 33C198.458 31.032 198.854 29.352 199.646 27.96C200.462 26.568 201.578 25.5 202.994 24.756C204.434 24.012 206.09 23.64 207.962 23.64ZM207.962 27.996C206.906 27.996 206.078 28.392 205.478 29.184C204.902 29.952 204.614 31.224 204.614 33C204.614 34.752 204.902 36.024 205.478 36.816C206.078 37.608 206.906 38.004 207.962 38.004C209.042 38.004 209.87 37.608 210.446 36.816C211.046 36.024 211.346 34.752 211.346 33C211.346 31.224 211.046 29.952 210.446 29.184C209.87 28.392 209.042 27.996 207.962 27.996ZM224.156 42L217.316 18.24H223.904L227.936 36.996L232.184 18.24H237.8L242.156 36.96L246.116 18.24H252.488L245.612 42H238.88L236.072 30.48L234.992 24.684H234.92L233.876 30.48L231.104 42H224.156ZM263.649 30.588C263.649 29.748 263.409 29.088 262.929 28.608C262.473 28.104 261.849 27.852 261.057 27.852C260.265 27.852 259.581 28.056 259.005 28.464C258.453 28.848 258.069 29.544 257.853 30.552L252.669 29.328C253.005 27.6 253.893 26.22 255.333 25.188C256.773 24.156 258.801 23.64 261.417 23.64C264.057 23.64 266.097 24.228 267.537 25.404C269.001 26.556 269.733 28.248 269.733 30.48V37.068C269.733 38.004 270.153 38.472 270.993 38.472C271.425 38.472 271.773 38.424 272.037 38.328L271.677 41.82C270.957 42.156 270.081 42.324 269.049 42.324C267.921 42.324 266.949 42.108 266.133 41.676C265.317 41.22 264.765 40.536 264.477 39.624C263.973 40.56 263.169 41.256 262.065 41.712C260.985 42.144 259.833 42.36 258.609 42.36C256.761 42.36 255.285 41.94 254.181 41.1C253.101 40.236 252.561 39 252.561 37.392C252.561 36.096 252.945 35.028 253.713 34.188C254.505 33.324 255.741 32.724 257.421 32.388L263.649 31.092V30.588ZM258.609 36.816C258.609 37.344 258.801 37.74 259.185 38.004C259.569 38.268 260.025 38.4 260.553 38.4C261.369 38.4 262.089 38.16 262.713 37.68C263.337 37.176 263.649 36.396 263.649 35.34V34.332L260.733 34.944C260.013 35.088 259.473 35.304 259.113 35.592C258.777 35.856 258.609 36.264 258.609 36.816ZM286.637 24V28.356H281.273V35.592C281.273 36.456 281.477 37.08 281.885 37.464C282.317 37.824 282.905 38.004 283.649 38.004C284.225 38.004 284.717 37.944 285.125 37.824C285.533 37.68 285.917 37.476 286.277 37.212L286.925 40.992C286.325 41.4 285.557 41.736 284.621 42C283.709 42.24 282.785 42.36 281.849 42.36C279.785 42.36 278.153 41.928 276.953 41.064C275.777 40.176 275.177 38.688 275.153 36.6V28.356H272.057V24H275.153V19.968L281.273 18.276V24H286.637ZM297.996 23.64C299.82 23.64 301.332 23.904 302.532 24.432C303.756 24.96 304.704 25.644 305.376 26.484C306.048 27.324 306.48 28.236 306.672 29.22L301.02 31.092C300.876 30.06 300.576 29.292 300.12 28.788C299.664 28.26 299.016 27.996 298.176 27.996C297.024 27.996 296.148 28.404 295.548 29.22C294.972 30.036 294.684 31.32 294.684 33.072C294.684 34.848 294.996 36.12 295.62 36.888C296.268 37.632 297.132 38.004 298.212 38.004C299.916 38.004 300.912 37.032 301.2 35.088L306.708 36.852C306.444 38.412 305.568 39.72 304.08 40.776C302.616 41.832 300.672 42.36 298.248 42.36C295.296 42.36 292.932 41.544 291.156 39.912C289.404 38.256 288.528 35.952 288.528 33C288.528 31.032 288.924 29.352 289.716 27.96C290.532 26.568 291.648 25.5 293.064 24.756C294.48 24.012 296.124 23.64 297.996 23.64ZM309.89 42V16.368H316.01V27.276C316.538 26.076 317.294 25.176 318.278 24.576C319.262 23.952 320.402 23.64 321.698 23.64C323.546 23.64 325.046 24.18 326.198 25.26C327.35 26.34 327.926 27.924 327.926 30.012V42H321.806V31.704C321.806 30.408 321.566 29.52 321.086 29.04C320.63 28.536 320.018 28.284 319.25 28.284C318.386 28.284 317.63 28.62 316.982 29.292C316.334 29.94 316.01 31.02 316.01 32.532V42H309.89Z" fill="#FFE6AB"/>
</g>
<defs>
<filter id="filter0_d" x="0.135254" y="0" width="334" height="68" filterUnits="userSpaceOnUse" color-interpolation-filters="sRGB">
<feFlood flood-opacity="0" result="BackgroundImageFix"/>
<feColorMatrix in="SourceAlpha" type="matrix" values="0 0 0 0 0 0 0 0 0 0 0 0 0 0 0 0 0 0 127 0"/>
<feOffset dy="4"/>
<feGaussianBlur stdDeviation="2"/>
<feColorMatrix type="matrix" values="0 0 0 0 0.243137 0 0 0 0 0.0196078 0 0 0 0 0.0156863 0 0 0 1 0"/>
<feBlend mode="normal" in2="BackgroundImageFix" result="effect1_dropShadow"/>
<feBlend mode="normal" in="SourceGraphic" in2="effect1_dropShadow" result="shape"/>
</filter>
<clipPath id="clip0">
<rect width="326" height="60" fill="white" transform="translate(4.13525)"/>
</clipPath>
</defs>
</svg>
